<svg width="33" height="32" viewBox="0 0 33 32" fill="none" xmlns="http://www.w3.org/2000/svg">
<path d="M28.8557 0H3.60696C1.62313 0 0 1.6 0 3.55556V28.4444C0 30.4 1.62313 32 3.60696 32H28.8557C30.8395 32 32.4627 30.4 32.4627 28.4444V3.55556C32.4627 1.6 30.8395 0 28.8557 0ZM13.9048 23.6267C13.738 23.7915 13.5398 23.9222 13.3216 24.0114C13.1035 24.1006 12.8696 24.1466 12.6334 24.1466C12.3972 24.1466 12.1633 24.1006 11.9451 24.0114C11.727 23.9222 11.5288 23.7915 11.3619 23.6267L4.88743 17.2444C4.72046 17.0799 4.58802 16.8845 4.49765 16.6694C4.40729 16.4544 4.36078 16.2239 4.36078 15.9911C4.36078 15.7583 4.40729 15.5279 4.49765 15.3128C4.58802 15.0978 4.72046 14.9024 4.88743 14.7378C5.0544 14.5732 5.25262 14.4426 5.47078 14.3536C5.68894 14.2645 5.92276 14.2186 6.15889 14.2186C6.39502 14.2186 6.62884 14.2645 6.84699 14.3536C7.06515 14.4426 7.26337 14.5732 7.43034 14.7378L12.6244 19.8578L25.0323 7.62667C25.3695 7.29426 25.8269 7.10752 26.3038 7.10752C26.7807 7.10752 27.238 7.29426 27.5752 7.62667C27.9124 7.95907 28.1019 8.40991 28.1019 8.88C28.1019 9.35009 27.9124 9.80093 27.5752 10.1333L13.9048 23.6267Z" fill="#D46240"/>
</svg>
